<svg width="1024" height="1024" viewBox="0 0 1024 1024" xmlns="http://www.w3.org/2000/svg">
  <defs>
    <!-- 渐变背景 -->
    <radialGradient id="bgGradient" cx="50%" cy="30%" r="70%">
      <stop offset="0%" style="stop-color:#FFE4E6;stop-opacity:1" />
      <stop offset="50%" style="stop-color:#FFB6C1;stop-opacity:1" />
      <stop offset="100%" style="stop-color:#FF69B4;stop-opacity:1" />
    </radialGradient>
    
    <!-- 阴影滤镜 -->
    <filter id="shadow">
      <feDropShadow dx="4" dy="4" stdDeviation="8" flood-opacity="0.3"/>
    </filter>
  </defs>
  
  <!-- 圆角背景 -->
  <rect width="1024" height="1024" rx="180" ry="180" fill="url(#bgGradient)"/>
  
  <!-- 装饰性彩色方块 -->
  <rect x="100" y="150" width="80" height="80" rx="15" fill="#87CEEB" filter="url(#shadow)" opacity="0.8"/>
  <rect x="850" y="200" width="70" height="70" rx="15" fill="#98FB98" filter="url(#shadow)" opacity="0.8"/>
  <rect x="120" y="750" width="75" height="75" rx="15" fill="#FFB347" filter="url(#shadow)" opacity="0.8"/>
  <rect x="800" y="780" width="85" height="85" rx="15" fill="#DDA0DD" filter="url(#shadow)" opacity="0.8"/>
  
  <!-- 可爱的猫咪主体 -->
  <g transform="translate(512,450)">
    <!-- 猫咪身体 -->
    <ellipse cx="0" cy="50" rx="180" ry="160" fill="#FF8C69" filter="url(#shadow)"/>
    
    <!-- 猫咪头部 -->
    <circle cx="0" cy="-80" r="140" fill="#FFA500" filter="url(#shadow)"/>
    
    <!-- 猫咪耳朵 -->
    <ellipse cx="-80" cy="-160" rx="35" ry="55" fill="#FF8C69" transform="rotate(-20)"/>
    <ellipse cx="80" cy="-160" rx="35" ry="55" fill="#FF8C69" transform="rotate(20)"/>
    
    <!-- 猫咪耳朵内部 -->
    <ellipse cx="-80" cy="-160" rx="20" ry="35" fill="#FFB6C1" transform="rotate(-20)"/>
    <ellipse cx="80" cy="-160" rx="20" ry="35" fill="#FFB6C1" transform="rotate(20)"/>
    
    <!-- 猫咪眼睛 -->
    <ellipse cx="-45" cy="-100" rx="25" ry="35" fill="#000000"/>
    <ellipse cx="45" cy="-100" rx="25" ry="35" fill="#000000"/>
    
    <!-- 眼睛高光 -->
    <ellipse cx="-40" cy="-110" rx="8" ry="12" fill="#FFFFFF"/>
    <ellipse cx="50" cy="-110" rx="8" ry="12" fill="#FFFFFF"/>
    
    <!-- 猫咪鼻子 -->
    <ellipse cx="0" cy="-60" rx="12" ry="8" fill="#FF1493"/>
    
    <!-- 猫咪嘴巴 -->
    <path d="M 0,-45 Q -20,-30 -35,-20" stroke="#000000" stroke-width="4" fill="none" stroke-linecap="round"/>
    <path d="M 0,-45 Q 20,-30 35,-20" stroke="#000000" stroke-width="4" fill="none" stroke-linecap="round"/>
    
    <!-- 猫咪胡须 -->
    <line x1="-80" y1="-70" x2="-120" y2="-65" stroke="#000000" stroke-width="3" stroke-linecap="round"/>
    <line x1="-80" y1="-50" x2="-120" y2="-50" stroke="#000000" stroke-width="3" stroke-linecap="round"/>
    <line x1="80" y1="-70" x2="120" y2="-65" stroke="#000000" stroke-width="3" stroke-linecap="round"/>
    <line x1="80" y1="-50" x2="120" y2="-50" stroke="#000000" stroke-width="3" stroke-linecap="round"/>
    
    <!-- 猫咪爪子 -->
    <ellipse cx="-100" cy="150" rx="30" ry="40" fill="#FF8C69"/>
    <ellipse cx="100" cy="150" rx="30" ry="40" fill="#FF8C69"/>
  </g>
  
  <!-- 装饰星星 -->
  <g fill="#FFFFFF" opacity="0.9">
    <polygon points="200,300 210,330 240,330 218,348 228,378 200,360 172,378 182,348 160,330 190,330" filter="url(#shadow)"/>
    <polygon points="750,350 755,370 775,370 760,382 765,402 750,390 735,402 740,382 725,370 745,370" filter="url(#shadow)"/>
    <polygon points="300,700 305,720 325,720 310,732 315,752 300,740 285,752 290,732 275,720 295,720" filter="url(#shadow)"/>
  </g>
  
  <!-- 可爱的爱心装饰 -->
  <g fill="#FF1493" opacity="0.8">
    <path d="M 850,500 C 850,485 865,470 880,470 C 895,470 910,485 910,500 C 910,525 880,550 880,550 C 880,550 850,525 850,500 Z" filter="url(#shadow)"/>
    <path d="M 150,400 C 150,390 160,380 170,380 C 180,380 190,390 190,400 C 190,420 170,440 170,440 C 170,440 150,420 150,400 Z" filter="url(#shadow)"/>
  </g>
</svg> 